<svg xmlns="http://www.w3.org/2000/svg"  viewBox="0 0 100 100" width="100px" height="100px"><path fill="#39c2d8" d="M54.654,75.307c0,0,29.631,0,29.812,0c6.843,0,12.39-5.547,12.39-12.39c0-5.97-4.223-10.952-9.844-12.126c0.065-0.523,0.109-1.052,0.109-1.592c0-7.087-5.745-12.833-12.832-12.833c-4.184,0-7.89,2.012-10.232,5.111c-0.599-7.889-7.646-13.976-15.891-12.967c-6.029,0.737-11.015,5.398-12.125,11.369c-0.356,1.915-0.319,3.775,0.036,5.519c-1.616-1.741-3.917-2.837-6.48-2.837c-4.69,0-8.518,3.651-8.82,8.265c-2.129-0.471-4.446-0.44-6.886,0.475c-4.663,1.75-7.984,6.142-8.179,11.119c-0.276,7.069,5.373,12.887,12.38,12.887c0.532,0,2.402,0,2.834,0h25.728"/><path fill="#1f212b" d="M84.465,76.307H54.654c-0.552,0-1-0.448-1-1s0.448-1,1-1h29.812c6.281,0,11.39-5.11,11.39-11.391c0-5.364-3.805-10.052-9.048-11.147c-0.509-0.106-0.852-0.585-0.788-1.102c0.069-0.561,0.102-1.028,0.102-1.469c0-6.525-5.308-11.833-11.833-11.833c-3.731,0-7.17,1.718-9.434,4.714c-0.25,0.332-0.681,0.473-1.08,0.356c-0.399-0.117-0.684-0.469-0.715-0.884c-0.271-3.563-2.015-6.91-4.787-9.181c-2.8-2.295-6.35-3.315-9.986-2.869c-5.604,0.685-10.235,5.027-11.263,10.559c-0.321,1.725-0.31,3.453,0.032,5.137c0.089,0.439-0.125,0.884-0.523,1.089c-0.4,0.205-0.885,0.12-1.19-0.209c-1.507-1.623-3.548-2.517-5.747-2.517c-4.117,0-7.553,3.22-7.822,7.331c-0.02,0.291-0.165,0.56-0.398,0.734c-0.233,0.176-0.531,0.24-0.816,0.177c-2.152-0.478-4.279-0.331-6.318,0.435C9.912,53.863,6.885,57.97,6.71,62.459c-0.122,3.133,1.004,6.099,3.171,8.353c2.168,2.254,5.084,3.496,8.21,3.496h28.562c0.552,0,1,0.448,1,1s-0.448,1-1,1H18.092c-3.676,0-7.104-1.459-9.652-4.109c-2.547-2.649-3.872-6.135-3.728-9.817c0.206-5.283,3.753-10.111,8.826-12.016c2.066-0.775,4.208-1.012,6.375-0.71c0.834-4.619,4.891-8.094,9.683-8.094c1.847,0,3.652,0.53,5.203,1.498c-0.036-1.116,0.05-2.24,0.258-3.362c1.186-6.381,6.526-11.389,12.986-12.179c4.188-0.515,8.27,0.662,11.497,3.308c2.618,2.146,4.441,5.126,5.183,8.394c2.559-2.471,5.943-3.853,9.564-3.853c7.627,0,13.833,6.206,13.833,13.833c0,0.267-0.01,0.539-0.029,0.827c5.709,1.604,9.764,6.888,9.764,12.891C97.855,70.3,91.848,76.307,84.465,76.307z"/><path fill="#1f212b" d="M20.291 65.371c-.011 0-.022 0-.034-.001-.275-.019-.484-.257-.465-.533.265-3.948 3.956-6.931 8.241-6.651.378.025.76.077 1.141.156.629-2.457 3.114-4.175 5.89-3.997 1.139.075 2.2.452 3.084 1.083.002-.126.007-.253.016-.379.3-4.473 4.479-7.847 9.342-7.535.275.018.484.256.466.532-.019.276-.257.481-.532.466-4.315-.288-8.016 2.681-8.279 6.604-.032.476-.012.956.06 1.427.034.219-.082.434-.282.528-.2.093-.439.045-.586-.121-.841-.95-2.033-1.52-3.354-1.607-2.462-.166-4.631 1.453-4.94 3.675-.02.143-.1.27-.22.349s-.269.103-.407.065c-.487-.133-.98-.216-1.464-.248-3.732-.244-6.95 2.322-7.178 5.721C20.772 65.168 20.552 65.371 20.291 65.371zM77.849 57.407c-.037 0-.074-.004-.112-.013-.269-.062-.438-.33-.376-.599.123-.539.307-1.063.546-1.56 1.953-4.044 7.24-5.59 11.788-3.446.25.118.356.416.239.666s-.415.357-.666.239c-4.052-1.909-8.745-.575-10.46 2.976-.207.429-.366.882-.472 1.348C78.283 57.25 78.077 57.407 77.849 57.407z"/><path fill="#fef6aa" d="M42.11,86.754l7.987,8.294c0.073,0.079,0.157,0.133,0.245,0.177c0.032,0.017,0.064,0.031,0.098,0.045c0.057,0.02,0.116,0.031,0.175,0.039c0.043,0.007,0.082,0.028,0.127,0.028c0.047,0,0.088-0.022,0.134-0.029c0.004-0.001,0.007,0,0.011-0.001c0.28,0.049,0.574-0.026,0.789-0.258l7.741-8.383c0.355-0.384,0.355-1.013,0-1.397c-0.355-0.384-0.935-0.384-1.29,0l-6.472,7.009V61.742c0-0.543-0.411-0.988-0.912-0.988c-0.502,0-0.912,0.445-1.088,0.988v30.221L43.4,85.357c-0.355-0.384-0.935-0.384-1.29,0C41.755,85.741,41.755,86.37,42.11,86.754z"/><path fill="#1f212b" d="M50.741,60.754c0.502,0,0.912,0.445,0.912,0.988v30.535l6.472-7.009c0.177-0.192,0.411-0.288,0.645-0.288c0.234,0,0.468,0.096,0.645,0.288c0.355,0.384,0.355,1.013,0,1.397l-7.741,8.383c-0.173,0.188-0.399,0.272-0.626,0.272c-0.054,0-0.109-0.005-0.163-0.014c-0.004,0.001-0.007,0-0.011,0.001c-0.046,0.008-0.087,0.029-0.134,0.029c-0.045,0-0.083-0.021-0.127-0.028c-0.059-0.007-0.118-0.019-0.175-0.039c-0.034-0.013-0.066-0.027-0.098-0.045c-0.088-0.044-0.172-0.098-0.245-0.177l-7.987-8.294c-0.355-0.384-0.355-1.013,0-1.397c0.177-0.192,0.411-0.288,0.645-0.288s0.468,0.096,0.645,0.288l6.253,6.606V61.742C49.829,61.198,50.239,60.754,50.741,60.754 M50.741,59.754c-0.909,0-1.71,0.66-2.039,1.681c-0.032,0.099-0.048,0.203-0.048,0.307v27.71l-4.527-4.783c-0.349-0.378-0.852-0.601-1.371-0.601c-0.519,0-1.022,0.222-1.38,0.61c-0.713,0.772-0.713,1.982,0,2.754l8.002,8.309c0.132,0.144,0.307,0.272,0.518,0.378c0.041,0.023,0.109,0.054,0.182,0.082c0.124,0.043,0.229,0.07,0.337,0.088c0.072,0.02,0.186,0.046,0.327,0.046c0.078,0,0.148-0.008,0.207-0.019c0.033,0.002,0.067,0.003,0.1,0.003c0.524,0,1.008-0.211,1.361-0.594l7.741-8.383c0.713-0.772,0.713-1.982,0-2.754c-0.358-0.388-0.861-0.61-1.38-0.61c-0.519,0-1.022,0.222-1.38,0.61l-4.737,5.13V61.742C52.654,60.646,51.796,59.754,50.741,59.754L50.741,59.754z"/></svg>