<svg xmlns="http://www.w3.org/2000/svg"  viewBox="0 0 100 100" width="100px" height="100px"><path fill="#78a1d1" d="M69.654,81.575h-39c-6.6,0-12-5.4-12-12v-39c0-6.6,5.4-12,12-12h39c6.6,0,12,5.4,12,12v39C81.654,76.175,76.254,81.575,69.654,81.575z"/><path fill="#1f212b" d="M69.654,82.575h-39c-7.18,0-13-5.82-13-13v-39c0-7.18,5.82-13,13-13h39c7.18,0,13,5.82,13,13v39C82.654,76.755,76.833,82.575,69.654,82.575z M19.654,30.575v39c0,6.075,4.925,11,11,11h39c6.075,0,11-4.925,11-11v-39c0-6.075-4.925-11-11-11h-39C24.578,19.575,19.654,24.5,19.654,30.575z"/><path fill="#fdfcee" d="M66.879,77H33.121C27.554,77,23,72.446,23,66.879V33.121C23,27.554,27.554,23,33.121,23h33.759C72.446,23,77,27.554,77,33.121v33.759C77,72.446,72.446,77,66.879,77z"/><path fill="#1f212b" d="M66.817 77.575H33.49c-5.985 0-10.837-4.852-10.837-10.837V33.413c0-5.986 4.852-10.838 10.838-10.838h33.662c.276 0 .5.224.5.5s-.224.5-.5.5H33.49c-5.433 0-9.837 4.404-9.837 9.837v33.326c0 5.433 4.404 9.837 9.837 9.837h33.326c5.433 0 9.837-4.404 9.837-9.837V48.075c0-.276.224-.5.5-.5s.5.224.5.5v18.663C77.654 72.723 72.802 77.575 66.817 77.575zM77.154 45.5c-.276 0-.5-.224-.5-.5v-4c0-.276.224-.5.5-.5s.5.224.5.5v4C77.654 45.276 77.43 45.5 77.154 45.5zM77.154 39.5c-.276 0-.5-.224-.5-.5v-2c0-.276.224-.5.5-.5s.5.224.5.5v2C77.654 39.276 77.43 39.5 77.154 39.5z"/><path fill="#78a1d1" d="M66.376 39.057L59.496 59.942 53.784 59.942 49.861 47.84 45.74 59.942 40.045 59.942 33.624 39.057 39.475 39.057 43.215 52.552 47.773 39.057 52.222 39.057 56.467 52.552 60.536 39.057 66.376 39.057"/><path fill="#1f212b" d="M59.496,60.442h-5.711c-0.217,0-0.409-0.14-0.476-0.346l-3.459-10.671l-3.636,10.678c-0.069,0.202-0.259,0.339-0.473,0.339h-5.696c-0.22,0-0.414-0.144-0.478-0.354l-6.42-20.886c-0.046-0.151-0.019-0.316,0.076-0.443c0.094-0.128,0.244-0.203,0.402-0.203h5.851c0.225,0,0.422,0.15,0.482,0.366l3.305,11.927L47.3,38.897c0.068-0.203,0.259-0.34,0.474-0.34h4.449c0.218,0,0.412,0.142,0.477,0.35l3.757,11.947l3.601-11.941c0.063-0.211,0.258-0.355,0.479-0.355h5.84c0.161,0,0.311,0.077,0.405,0.207c0.094,0.13,0.12,0.297,0.07,0.449l-6.88,20.886C59.903,60.304,59.712,60.442,59.496,60.442z M54.148,59.442h4.986l6.551-19.886h-4.777l-3.962,13.14c-0.063,0.21-0.256,0.354-0.476,0.355c-0.001,0-0.002,0-0.003,0c-0.218,0-0.412-0.142-0.477-0.35l-4.134-13.146h-3.723l-4.444,13.155c-0.07,0.207-0.261,0.334-0.487,0.34c-0.22-0.006-0.41-0.155-0.468-0.366l-3.638-13.129h-4.794l6.113,19.886h4.968l4.005-11.764c0.069-0.203,0.259-0.339,0.473-0.339c0,0,0.002,0,0.004,0c0.215,0.002,0.405,0.141,0.472,0.346L54.148,59.442z"/></svg>