<svg xmlns="http://www.w3.org/2000/svg"  viewBox="0 0 100 100" width="100px" height="100px"><path fill="#ee538f" d="M81.902,70.591c0,6.249-5.085,11.333-11.333,11.333H30.387c-6.249,0-11.333-5.085-11.333-11.333 V30.409c0-6.249,5.085-11.333,11.333-11.333h40.182c6.249,0,11.333,5.085,11.333,11.333V70.591z"/><path fill="#1f212b" d="M69.978,18h-39c-7.168,0-13,5.832-13,13v39c0,7.168,5.832,13,13,13h39c7.168,0,13-5.832,13-13V31 C82.978,23.832,77.146,18,69.978,18z M80.978,70c0,6.065-4.935,11-11,11h-39c-6.065,0-11-4.935-11-11V31c0-6.065,4.935-11,11-11h39 c6.065,0,11,4.935,11,11V70z"/><path fill="#fdfcee" d="M77.427,67.73c0,5.359-4.361,9.72-9.72,9.72h-34.46c-5.359,0-9.72-4.361-9.72-9.72V33.27 c0-5.359,4.361-9.72,9.72-9.72h34.46c5.359,0,9.72,4.361,9.72,9.72V67.73z"/><path fill="#ea538e" d="M69.119,55.433c-0.473-0.967-1.379-1.675-2.216-1.928c-1.682-0.444-3.019-0.601-4.425-0.572 c-0.69,0.017-1.371,0.033-2.045,0.092c-0.729,0.067-1.36,0.167-2.02,0.259c-0.592,0.087-1.177,0.188-1.765,0.282 c-0.475-0.45-0.938-0.909-1.381-1.375c-0.864-0.903-1.544-1.756-2.278-2.792c-0.697-0.934-1.35-1.902-1.965-2.892 c0.611-2.172,1.204-4.333,1.579-6.609c0.109-0.664,0.234-1.313,0.288-2.048c0.061-0.76-0.012-1.557-0.254-2.319 c-0.24-0.771-0.68-1.582-1.43-2.202c-0.751-0.615-1.799-0.942-2.758-0.782c-1.1,0.087-1.899,0.761-2.363,1.427 c-0.488,0.682-0.727,1.421-0.872,2.148c-0.272,1.454-0.083,2.913,0.261,4.21c0.5,1.914,1.244,3.694,2.098,5.416 c-0.082,0.22-0.157,0.444-0.243,0.663c-0.944,2.33-1.894,4.418-3.065,6.666c-0.644,1.267-1.302,2.528-1.978,3.776 c-1.04,0.394-2.068,0.815-3.081,1.273c-1.215,0.561-2.408,1.147-3.588,1.883c-0.294,0.181-0.592,0.387-0.891,0.609l-0.462,0.387 l-0.353,0.33c-0.494,0.465-0.993,0.971-1.438,1.574c-0.432,0.603-0.884,1.311-0.97,2.329c-0.033,0.505,0.082,1.081,0.353,1.548 c0.272,0.468,0.628,0.806,1.002,1.075c0.779,0.6,2.013,0.768,2.888,0.515c0.897-0.227,1.57-0.646,2.176-1.074 c1.206-0.859,2.15-1.845,3.086-2.821c0.927-0.984,1.771-2.013,2.55-3.077c0.767-1.067,1.498-2.15,2.194-3.25 c0.542-0.166,1.085-0.325,1.631-0.468c2.434-0.614,5.032-1.189,7.556-1.724c0.132-0.028,0.264-0.052,0.396-0.08 c1.367,1.103,2.814,2.11,4.444,2.964c0.309,0.163,0.648,0.306,0.984,0.449c0.361,0.137,0.732,0.241,1.057,0.37 c0.672,0.261,1.371,0.465,2.115,0.605c0.745,0.135,1.539,0.226,2.451,0.074c0.453-0.077,0.951-0.221,1.452-0.514 c0.493-0.291,0.966-0.781,1.25-1.338c0.278-0.549,0.389-1.16,0.383-1.616C69.471,56.411,69.362,55.905,69.119,55.433z M47.747,39.736c-0.364-1.126-0.539-2.23-0.403-3.281c0.072-0.513,0.217-1.013,0.46-1.384c0.236-0.38,0.546-0.604,0.776-0.615 c0.736,0.163,0.942,0.846,1.054,1.749c0.017,0.226,0.048,0.466,0.046,0.717c-0.013,0.259,0.013,0.436-0.022,0.728 c-0.022,0.527-0.113,1.126-0.219,1.707c-0.205,0.947-0.45,1.903-0.718,2.858C48.352,41.395,48.013,40.569,47.747,39.736z M36.392,65.37c-0.435,0.327-0.899,0.573-1.268,0.688c-0.581,0.18-1.29-0.011-1.237-0.687c0.01-0.255,0.212-0.702,0.531-1.12 c0.315-0.426,0.717-0.843,1.16-1.257l0.353-0.327l0.281-0.231c0.221-0.161,0.454-0.323,0.712-0.481 c1.018-0.633,2.163-1.196,3.308-1.718c0.049-0.022,0.099-0.042,0.149-0.063C39.213,62.096,38.016,64.083,36.392,65.37z M47.46,55.253c0.088-0.158,1.499-2.737,2.021-4.017c0.178-0.422,0.322-0.848,0.472-1.274c0.216,0.338,0.427,0.678,0.652,1.01 c0.386,0.538,0.756,1.061,1.216,1.622c0.459,0.521,0.929,1.015,1.416,1.481c0.017,0.016,0.035,0.031,0.053,0.047 C51.35,54.465,49.426,54.808,47.46,55.253z M66.091,56.551c0.004,0.236-0.078,0.704-0.513,0.911 c-0.352,0.167-0.842,0.228-1.395,0.248c-0.558,0.02-1.146-0.031-1.727-0.127c-0.584-0.117-1.012-0.383-1.548-0.685 c-0.802-0.489-1.578-1.063-2.336-1.67c0.061-0.012,0.122-0.025,0.182-0.037c0.628-0.116,1.285-0.244,1.858-0.302 c0.628-0.057,1.253-0.116,1.871-0.1c0.617,0.009,1.224,0.054,1.796,0.151c0.568,0.083,1.11,0.326,1.408,0.677 C65.993,55.965,66.086,56.27,66.091,56.551z"/><path fill="#1f212b" d="M34.876,68.993c-0.839,0-1.71-0.262-2.327-0.738c-0.481-0.346-0.855-0.747-1.129-1.219 c-0.308-0.53-0.461-1.198-0.419-1.832c0.098-1.153,0.6-1.939,1.062-2.587c0.5-0.676,1.04-1.211,1.502-1.646l0.837-0.736 c0.334-0.249,0.645-0.464,0.951-0.651c1.239-0.774,2.482-1.377,3.64-1.912c0.933-0.421,1.895-0.819,2.939-1.22 c0.644-1.19,1.27-2.393,1.884-3.602c1.129-2.168,2.068-4.211,3.047-6.627c0.048-0.122,0.094-0.251,0.14-0.38l0.023-0.065 c-0.947-1.935-1.597-3.63-2.039-5.319c-0.432-1.634-0.52-3.083-0.269-4.429c0.191-0.958,0.495-1.701,0.958-2.347 c0.662-0.952,1.658-1.55,2.729-1.634c1.021-0.176,2.229,0.168,3.115,0.893c0.733,0.605,1.282,1.449,1.591,2.44 c0.249,0.781,0.344,1.649,0.275,2.508c-0.046,0.629-0.143,1.199-0.236,1.751l-0.057,0.338c-0.357,2.169-0.904,4.212-1.531,6.45 c0.593,0.944,1.207,1.842,1.825,2.67c0.777,1.097,1.445,1.915,2.239,2.745c0.382,0.401,0.778,0.799,1.185,1.188l0.337-0.055 c0.396-0.065,0.792-0.13,1.19-0.188l0.378-0.054c0.537-0.077,1.071-0.153,1.669-0.208c0.687-0.06,1.378-0.077,2.079-0.094 c1.5-0.023,2.906,0.152,4.565,0.589c1.05,0.317,2.038,1.174,2.535,2.188c0.266,0.519,0.406,1.095,0.404,1.668 c0.008,0.602-0.151,1.275-0.438,1.841c-0.321,0.629-0.847,1.19-1.442,1.542c-0.49,0.287-1.02,0.475-1.623,0.576 c-1.015,0.169-1.895,0.058-2.623-0.074c-0.761-0.144-1.482-0.351-2.207-0.632c-0.163-0.063-0.335-0.12-0.512-0.179 c-0.179-0.06-0.362-0.12-0.542-0.188c-0.377-0.16-0.724-0.308-1.04-0.475c-1.447-0.759-2.87-1.699-4.34-2.87l-0.165,0.032 c-3.066,0.65-5.462,1.196-7.536,1.719c-0.476,0.125-0.953,0.263-1.43,0.407c-0.661,1.04-1.371,2.088-2.11,3.118 c-0.837,1.143-1.684,2.165-2.592,3.128c-0.949,0.99-1.919,2.002-3.16,2.886c-0.643,0.453-1.37,0.905-2.344,1.151 C35.554,68.95,35.218,68.993,34.876,68.993z M48.945,33.007c-0.141,0-0.28,0.011-0.415,0.033 c-1.099,0.089-1.744,0.802-2.035,1.219c-0.381,0.531-0.631,1.152-0.792,1.96c-0.223,1.191-0.14,2.496,0.254,3.984 c0.439,1.68,1.094,3.37,2.062,5.323c0.062,0.123,0.069,0.268,0.021,0.396l-0.093,0.257c-0.049,0.139-0.099,0.276-0.153,0.413 c-0.993,2.452-1.944,4.521-3.087,6.715c-0.643,1.267-1.303,2.531-1.982,3.783c-0.057,0.105-0.15,0.187-0.262,0.229 c-1.093,0.414-2.092,0.827-3.053,1.261c-1.124,0.52-2.333,1.104-3.528,1.852c-0.286,0.176-0.572,0.373-0.858,0.586L34.25,61.7 c-0.429,0.403-0.929,0.899-1.378,1.506c-0.398,0.557-0.798,1.182-0.874,2.073c-0.028,0.425,0.079,0.897,0.287,1.255 c0.204,0.352,0.478,0.644,0.861,0.919c0.625,0.482,1.676,0.668,2.458,0.441c0.787-0.199,1.377-0.544,2.027-1.002 c1.162-0.829,2.099-1.806,3.005-2.751c0.885-0.938,1.706-1.929,2.516-3.034c0.763-1.062,1.495-2.147,2.174-3.223 c0.064-0.101,0.162-0.176,0.276-0.211c0.549-0.168,1.099-0.329,1.651-0.473c2.091-0.527,4.498-1.076,7.58-1.729l0.395-0.08 c0.146-0.029,0.301,0.004,0.419,0.101c1.485,1.198,2.912,2.15,4.362,2.911c0.294,0.154,0.615,0.29,0.933,0.425 c0.164,0.062,0.333,0.119,0.499,0.174c0.194,0.064,0.384,0.127,0.561,0.196c0.666,0.259,1.329,0.448,2.025,0.58 c0.672,0.122,1.418,0.214,2.276,0.071c0.481-0.081,0.9-0.229,1.282-0.452c0.428-0.253,0.824-0.677,1.057-1.134 c0.212-0.417,0.335-0.935,0.329-1.382c0.001-0.423-0.101-0.842-0.295-1.219c-0.001-0.004-0.003-0.007-0.005-0.01 c-0.38-0.778-1.131-1.434-1.911-1.67c-1.57-0.413-2.847-0.575-4.271-0.551c-0.678,0.017-1.348,0.032-2.012,0.09 c-0.578,0.053-1.095,0.127-1.616,0.202l-0.379,0.054c-0.39,0.057-0.78,0.121-1.169,0.185l-0.586,0.096 c-0.152,0.024-0.309-0.023-0.422-0.131c-0.481-0.455-0.95-0.922-1.399-1.394c-0.829-0.866-1.524-1.719-2.324-2.848 c-0.668-0.896-1.337-1.88-1.981-2.917c-0.074-0.119-0.095-0.264-0.057-0.399c0.644-2.292,1.207-4.367,1.567-6.554l0.057-0.343 c0.094-0.554,0.182-1.075,0.225-1.66c0.059-0.734-0.021-1.47-0.232-2.132c-0.176-0.564-0.538-1.361-1.272-1.968 C50.335,33.262,49.62,33.007,48.945,33.007z M34.707,66.623c-0.345,0-0.667-0.1-0.906-0.291c-0.298-0.237-0.444-0.593-0.412-1 c0.018-0.429,0.338-0.999,0.632-1.385c0.294-0.397,0.682-0.818,1.216-1.318l0.658-0.579c0.254-0.188,0.5-0.356,0.771-0.521 c0.887-0.552,1.925-1.091,3.36-1.746c0.004-0.002,0.088-0.037,0.092-0.039c0.2-0.086,0.466-0.045,0.607,0.119 c0.142,0.164,0.196,0.386,0.083,0.571c-1.221,2.009-2.434,4.004-4.106,5.328c-0.003,0.003-0.006,0.006-0.01,0.008 c-0.467,0.352-0.985,0.631-1.42,0.766C35.083,66.594,34.892,66.623,34.707,66.623z M39.076,61.34 c-0.732,0.364-1.34,0.7-1.887,1.04c-0.25,0.151-0.472,0.307-0.682,0.46l-0.589,0.521c-0.487,0.455-0.836,0.833-1.098,1.187 c-0.299,0.393-0.429,0.743-0.434,0.845c-0.009,0.121,0.021,0.145,0.038,0.158c0.089,0.071,0.319,0.102,0.551,0.029 c0.324-0.101,0.739-0.327,1.11-0.605C37.245,64.055,38.194,62.732,39.076,61.34z M36.392,65.37h0.01H36.392z M63.943,58.214 c-0.487,0-1.013-0.046-1.57-0.138c-0.626-0.125-1.083-0.386-1.568-0.661l-0.146-0.082c-0.747-0.455-1.505-0.997-2.402-1.714 c-0.152-0.122-0.22-0.321-0.173-0.511c0.046-0.188,0.199-0.334,0.39-0.371l0.383-0.074c0.574-0.106,1.168-0.217,1.702-0.271 c0.655-0.06,1.297-0.123,1.933-0.104c0.695,0.011,1.308,0.062,1.868,0.158c0.712,0.104,1.337,0.414,1.705,0.848 c0.343,0.386,0.517,0.797,0.524,1.246l0,0c0.009,0.477-0.196,1.087-0.799,1.373c-0.377,0.178-0.867,0.269-1.591,0.296 C64.116,58.213,64.03,58.214,63.943,58.214z M59.761,55.516c0.5,0.371,0.959,0.683,1.406,0.955l0.134,0.075 c0.448,0.255,0.802,0.456,1.252,0.547c0.574,0.094,1.12,0.136,1.612,0.117c0.565-0.021,0.958-0.086,1.199-0.2 c0.227-0.107,0.227-0.415,0.227-0.449c0-0.001,0-0.001,0-0.002c-0.002-0.14-0.036-0.334-0.279-0.608 c-0.213-0.252-0.635-0.446-1.106-0.515c-0.521-0.089-1.084-0.137-1.732-0.146c-0.58-0.015-1.168,0.038-1.787,0.096 C60.391,55.414,60.078,55.462,59.761,55.516z M47.46,55.753c-0.155,0-0.305-0.072-0.4-0.2c-0.118-0.158-0.132-0.371-0.036-0.544 c0.184-0.328,1.511-2.778,1.994-3.961c0.148-0.354,0.271-0.703,0.394-1.054l0.069-0.199c0.064-0.18,0.225-0.308,0.415-0.33 c0.194-0.023,0.375,0.066,0.479,0.229l0.148,0.233c0.163,0.256,0.325,0.513,0.496,0.766l0.062,0.087 c0.355,0.495,0.702,0.98,1.126,1.499c0.459,0.519,0.913,0.993,1.375,1.436c0.136,0.13,0.214,0.35,0.159,0.529 c-0.055,0.181-0.18,0.339-0.365,0.371c-1.779,0.314-3.795,0.671-5.806,1.126C47.534,55.749,47.497,55.753,47.46,55.753z M50.08,51.086c-0.044,0.115-0.09,0.229-0.138,0.344c-0.34,0.835-1.04,2.188-1.525,3.103c1.319-0.278,2.619-0.518,3.834-0.734 c-0.273-0.281-0.537-0.567-0.806-0.872c-0.451-0.551-0.81-1.052-1.177-1.563l-0.07-0.099 C50.158,51.204,50.119,51.146,50.08,51.086z M48.721,42.715c-0.196,0-0.375-0.114-0.456-0.295 c-0.438-0.974-0.754-1.779-0.995-2.532c-0.42-1.303-0.559-2.446-0.422-3.497c0.062-0.449,0.206-1.087,0.536-1.594 c0.312-0.503,0.753-0.82,1.172-0.84c0.043-0.006,0.088,0.001,0.132,0.011c1.206,0.268,1.365,1.557,1.442,2.176l0.019,0.212 c0.017,0.184,0.033,0.374,0.032,0.57c-0.005,0.112-0.004,0.192-0.003,0.271c0.001,0.156,0.002,0.311-0.022,0.513 c-0.017,0.438-0.088,1.003-0.224,1.739c-0.195,0.902-0.433,1.847-0.728,2.901c-0.057,0.203-0.234,0.348-0.444,0.364 C48.746,42.715,48.733,42.715,48.721,42.715z M48.567,34.972c-0.07,0.04-0.209,0.153-0.339,0.362 c-0.188,0.288-0.32,0.696-0.389,1.19c-0.116,0.896,0.009,1.898,0.383,3.058c0,0,0,0.001,0.001,0.001 c0.111,0.349,0.24,0.709,0.391,1.096c0.125-0.496,0.237-0.97,0.336-1.427c0.124-0.674,0.191-1.194,0.208-1.622 c0.021-0.19,0.019-0.307,0.018-0.424c-0.001-0.098-0.001-0.196,0.004-0.31c0.001-0.141-0.014-0.299-0.028-0.45l-0.018-0.204 C49.025,35.355,48.841,35.072,48.567,34.972z"/><path fill="#1f212b" d="M77.501,47.007c-0.276,0-0.5,0.224-0.5,0.5l-0.023,19.656c0,5.424-4.413,9.837-9.837,9.837H33.814 c-5.424,0-9.837-4.413-9.837-9.837V33.837c0-5.424,4.413-9.837,9.837-9.837h33.663c0.276,0,0.5-0.224,0.5-0.5s-0.224-0.5-0.5-0.5 H33.814c-5.976,0-10.837,4.861-10.837,10.837v33.326C22.977,73.139,27.838,78,33.814,78H67.14c5.976,0,10.837-4.861,10.837-10.837 L78,47.507C78.001,47.231,77.777,47.007,77.501,47.007z M77.477,40c-0.276,0-0.5,0.224-0.5,0.5v4c0,0.276,0.224,0.5,0.5,0.5 s0.5-0.224,0.5-0.5v-4C77.977,40.224,77.753,40,77.477,40z M76.995,36.507v2c0,0.276,0.224,0.5,0.5,0.5s0.5-0.224,0.5-0.5v-2 c0-0.276-0.224-0.5-0.5-0.5S76.995,36.231,76.995,36.507z"/><g><path fill="#1f212b" d="M34.876,68.993c-0.839,0-1.71-0.262-2.327-0.738c-0.481-0.346-0.855-0.747-1.129-1.219 c-0.308-0.53-0.461-1.198-0.419-1.832c0.098-1.153,0.6-1.939,1.062-2.587c0.5-0.676,1.04-1.211,1.502-1.646l0.837-0.736 c0.334-0.249,0.645-0.464,0.951-0.651c1.239-0.774,2.482-1.377,3.64-1.912c0.933-0.421,1.895-0.819,2.939-1.22 c0.644-1.19,1.27-2.393,1.884-3.602c1.129-2.168,2.068-4.211,3.047-6.627c0.048-0.122,0.094-0.251,0.14-0.38l0.023-0.065 c-0.947-1.935-1.597-3.63-2.039-5.319c-0.432-1.634-0.52-3.083-0.269-4.429c0.191-0.958,0.495-1.701,0.958-2.347 c0.662-0.952,1.658-1.55,2.729-1.634c1.021-0.176,2.229,0.168,3.115,0.893c0.733,0.605,1.282,1.449,1.591,2.44 c0.249,0.781,0.344,1.649,0.275,2.508c-0.046,0.629-0.143,1.199-0.236,1.751l-0.057,0.338c-0.357,2.169-0.904,4.212-1.531,6.45 c0.593,0.944,1.207,1.842,1.825,2.67c0.777,1.097,1.445,1.915,2.239,2.745c0.382,0.401,0.778,0.799,1.185,1.188l0.337-0.055 c0.396-0.065,0.792-0.13,1.19-0.188l0.378-0.054c0.537-0.077,1.071-0.153,1.669-0.208c0.687-0.06,1.378-0.077,2.079-0.094 c1.5-0.023,2.906,0.152,4.565,0.589c1.05,0.317,2.038,1.174,2.535,2.188c0.266,0.519,0.406,1.095,0.404,1.668 c0.008,0.602-0.151,1.275-0.438,1.841c-0.321,0.629-0.847,1.19-1.442,1.542c-0.49,0.287-1.02,0.475-1.623,0.576 c-1.015,0.169-1.895,0.058-2.623-0.074c-0.761-0.144-1.482-0.351-2.207-0.632c-0.163-0.063-0.335-0.12-0.512-0.179 c-0.179-0.06-0.362-0.12-0.542-0.188c-0.377-0.16-0.724-0.308-1.04-0.475c-1.447-0.759-2.87-1.699-4.34-2.87l-0.165,0.032 c-3.066,0.65-5.462,1.196-7.536,1.719c-0.476,0.125-0.953,0.263-1.43,0.407c-0.661,1.04-1.371,2.088-2.11,3.118 c-0.837,1.143-1.684,2.165-2.592,3.128c-0.949,0.99-1.919,2.002-3.16,2.886c-0.643,0.453-1.37,0.905-2.344,1.151 C35.554,68.95,35.218,68.993,34.876,68.993z M48.945,33.007c-0.141,0-0.28,0.011-0.415,0.033 c-1.099,0.089-1.744,0.802-2.035,1.219c-0.381,0.531-0.631,1.152-0.792,1.96c-0.223,1.191-0.14,2.496,0.254,3.984 c0.439,1.68,1.094,3.37,2.062,5.323c0.062,0.123,0.069,0.268,0.021,0.396l-0.093,0.257c-0.049,0.139-0.099,0.276-0.153,0.413 c-0.993,2.452-1.944,4.521-3.087,6.715c-0.643,1.267-1.303,2.531-1.982,3.783c-0.057,0.105-0.15,0.187-0.262,0.229 c-1.093,0.414-2.092,0.827-3.053,1.261c-1.124,0.52-2.333,1.104-3.528,1.852c-0.286,0.176-0.572,0.373-0.858,0.586L34.25,61.7 c-0.429,0.403-0.929,0.899-1.378,1.506c-0.398,0.557-0.798,1.182-0.874,2.073c-0.028,0.425,0.079,0.897,0.287,1.255 c0.204,0.352,0.478,0.644,0.861,0.919c0.625,0.482,1.676,0.668,2.458,0.441c0.787-0.199,1.377-0.544,2.027-1.002 c1.162-0.829,2.099-1.806,3.005-2.751c0.885-0.938,1.706-1.929,2.516-3.034c0.763-1.062,1.495-2.147,2.174-3.223 c0.064-0.101,0.162-0.176,0.276-0.211c0.549-0.168,1.099-0.329,1.651-0.473c2.091-0.527,4.498-1.076,7.58-1.729l0.395-0.08 c0.146-0.029,0.301,0.004,0.419,0.101c1.485,1.198,2.912,2.15,4.362,2.911c0.294,0.154,0.615,0.29,0.933,0.425 c0.164,0.062,0.333,0.119,0.499,0.174c0.194,0.064,0.384,0.127,0.561,0.196c0.666,0.259,1.329,0.448,2.025,0.58 c0.672,0.122,1.418,0.214,2.276,0.071c0.481-0.081,0.9-0.229,1.282-0.452c0.428-0.253,0.824-0.677,1.057-1.134 c0.212-0.417,0.335-0.935,0.329-1.382c0.001-0.423-0.101-0.842-0.295-1.219c-0.001-0.004-0.003-0.007-0.005-0.01 c-0.38-0.778-1.131-1.434-1.911-1.67c-1.57-0.413-2.847-0.575-4.271-0.551c-0.678,0.017-1.348,0.032-2.012,0.09 c-0.578,0.053-1.095,0.127-1.616,0.202l-0.379,0.054c-0.39,0.057-0.78,0.121-1.169,0.185l-0.586,0.096 c-0.152,0.024-0.309-0.023-0.422-0.131c-0.481-0.455-0.95-0.922-1.399-1.394c-0.829-0.866-1.524-1.719-2.324-2.848 c-0.668-0.896-1.337-1.88-1.981-2.917c-0.074-0.119-0.095-0.264-0.057-0.399c0.644-2.292,1.207-4.367,1.567-6.554l0.057-0.343 c0.094-0.554,0.182-1.075,0.225-1.66c0.059-0.734-0.021-1.47-0.232-2.132c-0.176-0.564-0.538-1.361-1.272-1.968 C50.335,33.262,49.62,33.007,48.945,33.007z M34.707,66.623c-0.345,0-0.667-0.1-0.906-0.291c-0.298-0.237-0.444-0.593-0.412-1 c0.018-0.429,0.338-0.999,0.632-1.385c0.294-0.397,0.682-0.818,1.216-1.318l0.658-0.579c0.254-0.188,0.5-0.356,0.771-0.521 c0.887-0.552,1.925-1.091,3.36-1.746c0.004-0.002,0.088-0.037,0.092-0.039c0.2-0.086,0.466-0.045,0.607,0.119 c0.142,0.164,0.196,0.386,0.083,0.571c-1.221,2.009-2.434,4.004-4.106,5.328c-0.003,0.003-0.006,0.006-0.01,0.008 c-0.467,0.352-0.985,0.631-1.42,0.766C35.083,66.594,34.892,66.623,34.707,66.623z M39.076,61.34 c-0.732,0.364-1.34,0.7-1.887,1.04c-0.25,0.151-0.472,0.307-0.682,0.46l-0.589,0.521c-0.487,0.455-0.836,0.833-1.098,1.187 c-0.299,0.393-0.429,0.743-0.434,0.845c-0.009,0.121,0.021,0.145,0.038,0.158c0.089,0.071,0.319,0.102,0.551,0.029 c0.324-0.101,0.739-0.327,1.11-0.605C37.245,64.055,38.194,62.732,39.076,61.34z M36.392,65.37h0.01H36.392z M63.943,58.214 c-0.487,0-1.013-0.046-1.57-0.138c-0.626-0.125-1.083-0.386-1.568-0.661l-0.146-0.082c-0.747-0.455-1.505-0.997-2.402-1.714 c-0.152-0.122-0.22-0.321-0.173-0.511c0.046-0.188,0.199-0.334,0.39-0.371l0.383-0.074c0.574-0.106,1.168-0.217,1.702-0.271 c0.655-0.06,1.297-0.123,1.933-0.104c0.695,0.011,1.308,0.062,1.868,0.158c0.712,0.104,1.337,0.414,1.705,0.848 c0.343,0.386,0.517,0.797,0.524,1.246l0,0c0.009,0.477-0.196,1.087-0.799,1.373c-0.377,0.178-0.867,0.269-1.591,0.296 C64.116,58.213,64.03,58.214,63.943,58.214z M59.761,55.516c0.5,0.371,0.959,0.683,1.406,0.955l0.134,0.075 c0.448,0.255,0.802,0.456,1.252,0.547c0.574,0.094,1.12,0.136,1.612,0.117c0.565-0.021,0.958-0.086,1.199-0.2 c0.227-0.107,0.227-0.415,0.227-0.449c0-0.001,0-0.001,0-0.002c-0.002-0.14-0.036-0.334-0.279-0.608 c-0.213-0.252-0.635-0.446-1.106-0.515c-0.521-0.089-1.084-0.137-1.732-0.146c-0.58-0.015-1.168,0.038-1.787,0.096 C60.391,55.414,60.078,55.462,59.761,55.516z M47.46,55.753c-0.155,0-0.305-0.072-0.4-0.2c-0.118-0.158-0.132-0.371-0.036-0.544 c0.184-0.328,1.511-2.778,1.994-3.961c0.148-0.354,0.271-0.703,0.394-1.054l0.069-0.199c0.064-0.18,0.225-0.308,0.415-0.33 c0.194-0.023,0.375,0.066,0.479,0.229l0.148,0.233c0.163,0.256,0.325,0.513,0.496,0.766l0.062,0.087 c0.355,0.495,0.702,0.98,1.126,1.499c0.459,0.519,0.913,0.993,1.375,1.436c0.136,0.13,0.214,0.35,0.159,0.529 c-0.055,0.181-0.18,0.339-0.365,0.371c-1.779,0.314-3.795,0.671-5.806,1.126C47.534,55.749,47.497,55.753,47.46,55.753z M50.08,51.086c-0.044,0.115-0.09,0.229-0.138,0.344c-0.34,0.835-1.04,2.188-1.525,3.103c1.319-0.278,2.619-0.518,3.834-0.734 c-0.273-0.281-0.537-0.567-0.806-0.872c-0.451-0.551-0.81-1.052-1.177-1.563l-0.07-0.099 C50.158,51.204,50.119,51.146,50.08,51.086z M48.721,42.715c-0.196,0-0.375-0.114-0.456-0.295 c-0.438-0.974-0.754-1.779-0.995-2.532c-0.42-1.303-0.559-2.446-0.422-3.497c0.062-0.449,0.206-1.087,0.536-1.594 c0.312-0.503,0.753-0.82,1.172-0.84c0.043-0.006,0.088,0.001,0.132,0.011c1.206,0.268,1.365,1.557,1.442,2.176l0.019,0.212 c0.017,0.184,0.033,0.374,0.032,0.57c-0.005,0.112-0.004,0.192-0.003,0.271c0.001,0.156,0.002,0.311-0.022,0.513 c-0.017,0.438-0.088,1.003-0.224,1.739c-0.195,0.902-0.433,1.847-0.728,2.901c-0.057,0.203-0.234,0.348-0.444,0.364 C48.746,42.715,48.733,42.715,48.721,42.715z M48.567,34.972c-0.07,0.04-0.209,0.153-0.339,0.362 c-0.188,0.288-0.32,0.696-0.389,1.19c-0.116,0.896,0.009,1.898,0.383,3.058c0,0,0,0.001,0.001,0.001 c0.111,0.349,0.24,0.709,0.391,1.096c0.125-0.496,0.237-0.97,0.336-1.427c0.124-0.674,0.191-1.194,0.208-1.622 c0.021-0.19,0.019-0.307,0.018-0.424c-0.001-0.098-0.001-0.196,0.004-0.31c0.001-0.141-0.014-0.299-0.028-0.45l-0.018-0.204 C49.025,35.355,48.841,35.072,48.567,34.972z"/></g></svg>