<svg xmlns="http://www.w3.org/2000/svg"  viewBox="0 0 100 100" width="100px" height="100px"><path fill="#f27c7d" d="M69.961,81.575h-39c-6.6,0-12-5.4-12-12v-39c0-6.6,5.4-12,12-12h39c6.6,0,12,5.4,12,12v39C81.961,76.175,76.561,81.575,69.961,81.575z"/><path fill="#1f212b" d="M69.961,82.575h-39c-7.18,0-13-5.82-13-13v-39c0-7.18,5.82-13,13-13h39c7.18,0,13,5.82,13,13v39C82.961,76.755,77.14,82.575,69.961,82.575z M19.961,30.575v39c0,6.075,4.925,11,11,11h39c6.075,0,11-4.925,11-11v-39c0-6.075-4.925-11-11-11h-39C24.885,19.575,19.961,24.5,19.961,30.575z"/><path fill="#fdfcee" d="M66.84,76.575H33.081c-5.566,0-10.121-4.554-10.121-10.121V32.696c0-5.566,4.554-10.121,10.121-10.121H66.84c5.566,0,10.121,4.554,10.121,10.121v33.759C76.961,72.02,72.406,76.575,66.84,76.575z"/><path fill="#1f212b" d="M67.124 77.575H33.798c-5.985 0-10.837-4.852-10.837-10.837V33.413c0-5.986 4.852-10.838 10.838-10.838h33.662c.276 0 .5.224.5.5s-.224.5-.5.5H33.798c-5.433 0-9.837 4.404-9.837 9.837v33.326c0 5.433 4.404 9.837 9.837 9.837h33.326c5.433 0 9.837-4.404 9.837-9.837V48.075c0-.276.224-.5.5-.5s.5.224.5.5v18.663C77.961 72.723 73.109 77.575 67.124 77.575zM77.461 45.5c-.276 0-.5-.224-.5-.5v-4c0-.276.224-.5.5-.5s.5.224.5.5v4C77.961 45.276 77.737 45.5 77.461 45.5zM77.461 39.5c-.276 0-.5-.224-.5-.5v-2c0-.276.224-.5.5-.5s.5.224.5.5v2C77.961 39.276 77.737 39.5 77.461 39.5z"/><path fill="#f27c7d" d="M57.206,40.812c-1.459-1.56-3.596-2.341-6.409-2.341h-9.891v23.057h6.066v-7.917h3.932c3.097,0,5.312-0.866,6.645-2.6c1.034-1.338,1.546-3.03,1.546-5.078C59.094,43.856,58.464,42.147,57.206,40.812z M52.278,48.222c-0.549,0.609-1.56,0.916-3.035,0.916h-2.271v-6.193h2.287c1.376,0,2.351,0.277,2.921,0.829c0.568,0.558,0.855,1.295,0.855,2.221C53.035,46.934,52.782,47.675,52.278,48.222z"/><path fill="#1f212b" d="M46.972,62.029h-6.066c-0.276,0-0.5-0.224-0.5-0.5V38.471c0-0.276,0.224-0.5,0.5-0.5h9.891c2.943,0,5.222,0.841,6.773,2.498c1.343,1.426,2.024,3.264,2.024,5.464c0,2.153-0.555,3.965-1.65,5.384c-1.425,1.854-3.794,2.794-7.041,2.794h-3.432v7.418C47.472,61.805,47.248,62.029,46.972,62.029z M41.405,61.029h5.066v-7.418c0-0.276,0.224-0.5,0.5-0.5h3.932c2.919,0,5.022-0.809,6.249-2.404c0.958-1.24,1.442-2.847,1.442-4.773c0-1.937-0.59-3.544-1.752-4.778l-0.001-0.001c-1.355-1.448-3.389-2.183-6.044-2.183h-9.391V61.029z M49.243,49.638h-2.271c-0.276,0-0.5-0.224-0.5-0.5v-6.193c0-0.276,0.224-0.5,0.5-0.5h2.287c1.525,0,2.595,0.317,3.269,0.97c0.669,0.657,1.007,1.524,1.007,2.581c0,1.06-0.298,1.922-0.887,2.563C51.992,49.285,50.879,49.638,49.243,49.638z M47.472,48.638h1.771c1.319,0,2.215-0.253,2.664-0.751c0.001-0.001,0.002-0.002,0.003-0.003c0.42-0.458,0.625-1.075,0.625-1.889c0-0.789-0.23-1.398-0.705-1.865c-0.469-0.454-1.335-0.686-2.571-0.686h-1.787V48.638z"/></svg>