<svg xmlns="http://www.w3.org/2000/svg"  viewBox="0 0 100 100" width="100px" height="100px"><path fill="#ee4267" d="M69,82H31c-7.18,0-13-5.82-13-13V31c0-7.18,5.82-13,13-13h38c7.18,0,13,5.82,13,13v38	C82,76.18,76.18,82,69,82z"/><path fill="#fff" d="M29.5,46.5v24c0,1.105,0.896,2,2,2h37c1.104,0,2-0.895,2-2v-24H29.5z M46.5,65.5v-9l8,4.5L46.5,65.5z"/><path fill="#fff" d="M68.79,33.368l-1.311-4.631c-0.301-1.063-1.406-1.681-2.469-1.38L29.525,37.4	c-1.063,0.301-1.681,1.406-1.38,2.469l1.311,4.631L68.79,33.368z"/><path fill="#1f212b" d="M68.5,73h-37c-1.379,0-2.5-1.121-2.5-2.5v-24c0-0.276,0.224-0.5,0.5-0.5h41	c0.276,0,0.5,0.224,0.5,0.5v24C71,71.879,69.879,73,68.5,73z M30,47v23.5c0,0.827,0.673,1.5,1.5,1.5h37c0.827,0,1.5-0.673,1.5-1.5	V47H30z"/><path fill="#1f212b" d="M69,83H31c-7.72,0-14-6.28-14-14V31c0-7.72,6.28-14,14-14h38c7.72,0,14,6.28,14,14v38	C83,76.72,76.72,83,69,83z M31,19c-6.617,0-12,5.383-12,12v38c0,6.617,5.383,12,12,12h38c6.617,0,12-5.383,12-12V31	c0-6.617-5.383-12-12-12H31z"/><path fill="#1f212b" d="M67.5,78h-35C26.71,78,22,73.29,22,67.5v-35C22,26.71,26.71,22,32.5,22h34c0.276,0,0.5,0.224,0.5,0.5	S66.776,23,66.5,23h-34c-5.238,0-9.5,4.262-9.5,9.5v35c0,5.238,4.262,9.5,9.5,9.5h35c5.238,0,9.5-4.262,9.5-9.5v-19	c0-0.276,0.224-0.5,0.5-0.5s0.5,0.224,0.5,0.5v19C78,73.29,73.29,78,67.5,78z"/><path fill="#1f212b" d="M46.5,66c-0.087,0-0.175-0.022-0.252-0.068C46.095,65.842,46,65.678,46,65.5v-9	c0-0.178,0.095-0.342,0.248-0.432c0.153-0.091,0.344-0.091,0.497-0.004l8,4.5C54.902,60.652,55,60.819,55,61	s-0.098,0.348-0.255,0.436l-8,4.5C46.669,65.979,46.585,66,46.5,66z M47,57.354v7.291L53.48,61L47,57.354z"/><path fill="#1f212b" d="M77.5,46c-0.276,0-0.5-0.224-0.5-0.5v-4c0-0.276,0.224-0.5,0.5-0.5s0.5,0.224,0.5,0.5v4	C78,45.776,77.776,46,77.5,46z"/><path fill="#1f212b" d="M77.5,40c-0.276,0-0.5-0.224-0.5-0.5v-2c0-0.276,0.224-0.5,0.5-0.5s0.5,0.224,0.5,0.5v2	C78,39.776,77.776,40,77.5,40z"/><path fill="#1f212b" d="M35.408,48.676c0.032,0.104-0.008,0.219-0.098,0.28l-1.919,1.317	c-0.043,0.029-0.092,0.044-0.142,0.044c-0.04,0-0.08-0.01-0.116-0.028C33.052,50.245,33,50.16,33,50.067V48.75	c0-0.138,0.112-0.25,0.25-0.25h1.919C35.278,48.5,35.375,48.571,35.408,48.676z M66.866,50.211c-0.081-0.041-0.18-0.037-0.258,0.016	l-1.919,1.317c-0.09,0.062-0.13,0.176-0.098,0.28C64.625,51.929,64.722,52,64.831,52h1.919c0.138,0,0.25-0.112,0.25-0.25v-1.317	C67,50.34,66.948,50.255,66.866,50.211z M42.29,48.5h-1.976c-0.058,0-0.114,0.021-0.159,0.057l-3.643,3	c-0.081,0.067-0.111,0.179-0.076,0.277c0.036,0.1,0.13,0.166,0.235,0.166h1.976c0.058,0,0.114-0.021,0.159-0.057l3.643-3	c0.081-0.067,0.111-0.179,0.076-0.277C42.489,48.566,42.396,48.5,42.29,48.5z M49.303,48.5h-1.976c-0.058,0-0.114,0.021-0.159,0.057	l-3.643,3c-0.081,0.067-0.111,0.179-0.076,0.277c0.036,0.1,0.13,0.166,0.235,0.166h1.976c0.058,0,0.114-0.021,0.159-0.057l3.643-3	c0.081-0.067,0.111-0.179,0.076-0.277C49.502,48.566,49.408,48.5,49.303,48.5z M56.315,48.5H54.34c-0.058,0-0.114,0.021-0.159,0.057	l-3.643,3c-0.081,0.067-0.111,0.179-0.076,0.277c0.036,0.1,0.13,0.166,0.235,0.166h1.976c0.058,0,0.114-0.021,0.159-0.057l3.643-3	c0.081-0.067,0.111-0.179,0.076-0.277C56.515,48.566,56.421,48.5,56.315,48.5z M63.328,48.5h-1.976	c-0.058,0-0.114,0.021-0.159,0.057l-3.643,3c-0.081,0.067-0.111,0.179-0.076,0.277c0.036,0.1,0.13,0.166,0.235,0.166h1.976	c0.058,0,0.114-0.021,0.159-0.057l3.643-3c0.081-0.067,0.111-0.179,0.076-0.277C63.527,48.566,63.434,48.5,63.328,48.5z"/><path fill="#1f212b" d="M33.765,38.101c0.06,0.092,0.053,0.212-0.018,0.297l-1.487,1.791c-0.048,0.058-0.119,0.09-0.192,0.09	c-0.018,0-0.034-0.002-0.052-0.006c-0.091-0.019-0.163-0.087-0.188-0.176l-0.359-1.268c-0.019-0.063-0.011-0.133,0.021-0.19	c0.033-0.058,0.087-0.101,0.15-0.118l1.847-0.523C33.594,37.966,33.704,38.009,33.765,38.101z M64.637,31.174	c-0.025-0.089-0.098-0.157-0.188-0.176c-0.09-0.02-0.185,0.013-0.244,0.085l-1.486,1.791c-0.07,0.084-0.077,0.204-0.018,0.296	c0.048,0.072,0.127,0.113,0.21,0.113c0.022,0,0.046-0.003,0.068-0.01l1.846-0.523c0.133-0.037,0.21-0.176,0.172-0.309L64.637,31.174	z M40.337,36.055l-1.9,0.539c-0.056,0.016-0.104,0.05-0.137,0.098l-2.687,3.88c-0.061,0.087-0.06,0.202,0.002,0.288	c0.048,0.066,0.124,0.104,0.203,0.104c0.022,0,0.046-0.003,0.068-0.01l1.901-0.539c0.056-0.016,0.104-0.05,0.137-0.098l2.686-3.88	c0.061-0.087,0.06-0.202-0.002-0.288C40.547,36.064,40.439,36.025,40.337,36.055z M47.084,34.142l-1.9,0.539	c-0.056,0.016-0.104,0.05-0.137,0.098l-2.687,3.88c-0.061,0.087-0.06,0.202,0.002,0.288c0.048,0.066,0.124,0.104,0.203,0.104	c0.022,0,0.046-0.003,0.068-0.01l1.9-0.539c0.056-0.016,0.104-0.05,0.137-0.098l2.687-3.88c0.061-0.087,0.06-0.202-0.002-0.288	C47.295,34.151,47.187,34.111,47.084,34.142z M53.831,32.229l-1.901,0.538c-0.056,0.016-0.104,0.05-0.137,0.098l-2.686,3.88	c-0.061,0.087-0.06,0.202,0.002,0.288c0.048,0.066,0.124,0.104,0.203,0.104c0.022,0,0.046-0.003,0.068-0.01l1.9-0.538	c0.056-0.016,0.104-0.05,0.137-0.098l2.687-3.88c0.061-0.087,0.06-0.202-0.002-0.288C54.042,32.239,53.934,32.199,53.831,32.229z M60.577,30.316l-1.9,0.539c-0.056,0.016-0.104,0.05-0.137,0.098l-2.687,3.88c-0.061,0.087-0.06,0.202,0.002,0.288	c0.048,0.066,0.124,0.104,0.203,0.104c0.022,0,0.046-0.003,0.068-0.01l1.901-0.539c0.056-0.016,0.104-0.05,0.137-0.098l2.686-3.88	c0.061-0.087,0.06-0.202-0.002-0.288C60.787,30.326,60.679,30.287,60.577,30.316z"/><path fill="#1f212b" d="M29.456,45c-0.085,0-0.169-0.021-0.244-0.063c-0.115-0.064-0.201-0.173-0.237-0.301l-1.311-4.631	c-0.375-1.326,0.398-2.711,1.726-3.087l35.485-10.042c0.642-0.179,1.317-0.103,1.899,0.224c0.583,0.325,1.005,0.858,1.187,1.502	l1.311,4.631c0.075,0.266-0.079,0.542-0.346,0.617L29.592,44.981C29.548,44.994,29.502,45,29.456,45z M65.558,27.781	c-0.137,0-0.275,0.019-0.411,0.058L29.661,37.881c-0.795,0.225-1.26,1.056-1.034,1.853l1.174,4.149l38.372-10.859l-1.175-4.15	c-0.108-0.386-0.361-0.705-0.711-0.9C66.061,27.846,65.811,27.781,65.558,27.781z"/></svg>