<?xml version="1.0" encoding="UTF-8" standalone="no"?>
<svg
   xmlns:dc="http://purl.org/dc/elements/1.1/"
   xmlns:cc="http://creativecommons.org/ns#"
   xmlns:rdf="http://www.w3.org/1999/02/22-rdf-syntax-ns#"
   xmlns:svg="http://www.w3.org/2000/svg"
   xmlns="http://www.w3.org/2000/svg"
   xmlns:sodipodi="http://sodipodi.sourceforge.net/DTD/sodipodi-0.dtd"
   xmlns:inkscape="http://www.inkscape.org/namespaces/inkscape"
   inkscape:version="1.0 (4035a4fb49, 2020-05-01)"
   sodipodi:docname="icons8-upload-to-the-cloud.svg"
   id="svg10"
   version="1.1"
   height="44"
   width="100"
   viewBox="0 0 100 44">
  <metadata
     id="metadata16">
    <rdf:RDF>
      <cc:Work
         rdf:about="">
        <dc:format>image/svg+xml</dc:format>
        <dc:type
           rdf:resource="http://purl.org/dc/dcmitype/StillImage" />
        <dc:title></dc:title>
      </cc:Work>
    </rdf:RDF>
  </metadata>
  <defs
     id="defs14" />
  <sodipodi:namedview
     inkscape:current-layer="svg10"
     inkscape:window-maximized="1"
     inkscape:window-y="-8"
     inkscape:window-x="-8"
     inkscape:cy="44.683258"
     inkscape:cx="54.103861"
     inkscape:zoom="8.5"
     showguides="false"
     showgrid="false"
     id="namedview12"
     inkscape:window-height="1017"
     inkscape:window-width="1920"
     inkscape:pageshadow="2"
     inkscape:pageopacity="0"
     guidetolerance="10"
     gridtolerance="10"
     objecttolerance="10"
     borderopacity="1"
     bordercolor="#666666"
     pagecolor="#ffffff" />
  <path
     id="path92"
     d=""
     style="fill:#000000;fill-opacity:1;stroke-width:0.117647" />
  <path
     id="path100"
     d=""
     style="fill:#000000;fill-opacity:1;stroke-width:0.117647" />
  <g
     transform="matrix(1.4491203,0,0,1.6234445,-25.894517,-57.668084)"
     id="g126">
    <path
       fill="#39c2d8"
       d="m 82.151586,48.684235 c 0.128059,-0.564054 0.201353,-1.155981 0.201353,-1.770208 0,-3.638733 -2.396471,-6.588235 -5.352941,-6.588235 -1.505,0 -2.862588,0.766769 -3.835176,1.997249 -0.581824,-3.454769 -3.067647,-6.051548 -6.047176,-6.051548 -3.411059,0 -6.176471,3.403584 -6.176471,7.60181 0,0.234136 0.01153,0.464724 0.02841,0.693285 -0.659235,-0.74295 -1.534647,-1.200072 -2.499,-1.200072 -2.046882,0 -3.705882,2.041846 -3.705882,4.561086 0,0.171294 0.0091,0.340054 0.02429,0.506787 H 54.352941 C 51.39647,48.434389 49,51.383892 49,55.022625 c 0,3.638733 2.39647,6.588235 5.352941,6.588235 H 80.70588 c 2.95647,0 5.352941,-2.949502 5.352941,-6.588235 0,-3.02096 -1.654059,-5.560978 -3.907235,-6.33839 z"
       id="path2"
       style="stroke-width:0.456812" />
    <path
       fill="#1f212b"
       d="M 80.70588,62.117647 H 54.352941 c -3.178824,0 -5.764706,-3.182624 -5.764706,-7.095022 0,-3.912399 2.585882,-7.095023 5.764706,-7.095023 0,-2.794425 1.847176,-5.067873 4.117646,-5.067873 0.730883,0 1.440765,0.23971 2.064177,0.686696 0.14,-4.320362 3.039235,-7.781719 6.582882,-7.781719 2.871647,0 5.406058,2.318045 6.271587,5.621792 1.020765,-1.016109 2.27953,-1.567493 3.610765,-1.567493 3.178823,0 5.764705,3.182624 5.764705,7.095022 0,0.47334 -0.04118,0.95276 -0.122294,1.430661 2.272941,0.998878 3.828175,3.677756 3.828175,6.677937 0,3.912398 -2.585881,7.095022 -5.764704,7.095022 z M 54.352941,48.941177 c -2.724647,0 -4.941176,2.728036 -4.941176,6.081448 0,3.353411 2.216529,6.081448 4.941176,6.081448 H 80.70588 c 2.724647,0 4.941176,-2.728037 4.941176,-6.081448 0,-2.711819 -1.483176,-5.117539 -3.606647,-5.850353 -0.218235,-0.07551 -0.346294,-0.354245 -0.285353,-0.623349 0.12353,-0.546823 0.186118,-1.096688 0.186118,-1.634896 0,-3.353411 -2.216529,-6.081448 -4.941176,-6.081448 -1.343176,0 -2.599882,0.65477 -3.539941,1.844199 -0.106647,0.134806 -0.264353,0.186498 -0.410529,0.133285 -0.145765,-0.0527 -0.256942,-0.200181 -0.287824,-0.383638 -0.550941,-3.272832 -2.924764,-5.648144 -5.644058,-5.648144 -3.178824,0 -5.764706,3.182624 -5.764706,7.095022 0,0.218932 0.01112,0.43381 0.02677,0.647168 0.01524,0.208289 -0.07494,0.407457 -0.227294,0.499692 -0.152353,0.09325 -0.335588,0.06132 -0.460765,-0.08007 -0.610647,-0.687711 -1.399588,-1.066788 -2.221059,-1.066788 -1.816294,0 -3.294117,1.81886 -3.294117,4.054299 0,0.15305 0.0086,0.303059 0.02182,0.451547 0.01276,0.143421 -0.02471,0.286335 -0.102941,0.393267 -0.07782,0.107439 -0.189411,0.168761 -0.306353,0.168761 z"
       id="path6"
       style="stroke-width:0.456812" />
    <text
       xml:space="preserve"
       style="font-style:normal;font-weight:normal;font-size:12.2689px;line-height:1.25;font-family:sans-serif;fill:#000000;fill-opacity:1;stroke:none;stroke-width:0.306722"
       x="62.620964"
       y="50.499435"
       id="text20"
       transform="scale(0.85618579,1.1679708)"><tspan
         sodipodi:role="line"
         id="tspan18"
         x="62.620964"
         y="50.499435"
         style="font-style:normal;font-variant:normal;font-weight:normal;font-stretch:normal;font-family:'Berlin Sans FB Demi';-inkscape-font-specification:'Berlin Sans FB Demi';stroke-width:0.306722">Cloud</tspan></text>
    <path
       style="fill:#ffffff;stroke-width:0.0537426"
       d="m 56.745188,59.107803 c -1.370918,-0.372067 -2.39151,-1.748568 -2.719471,-3.667824 -0.10391,-0.608096 -0.117199,-1.992921 -0.02431,-2.533937 0.337102,-1.963491 1.314328,-3.412468 2.580258,-3.825864 0.435002,-0.142053 1.258545,-0.127634 1.744874,0.03055 0.655017,0.21305 1.286969,0.693535 1.590548,1.209325 l 0.141817,0.240951 -0.09854,0.308 c -0.124798,0.390069 -0.608262,1.50301 -0.704207,1.621096 -0.06437,0.07922 -0.106004,0.05175 -0.371316,-0.244993 -0.433401,-0.48475 -0.791873,-0.693388 -1.249589,-0.727288 -0.476442,-0.03529 -0.782691,0.08556 -1.096319,0.432611 -0.437815,0.484472 -0.641884,1.158168 -0.640916,2.115865 0.0012,1.136744 0.33589,1.984665 0.937383,2.374452 0.219743,0.1424 0.302791,0.161323 0.7091,0.161576 0.402861,2.39e-4 0.493409,-0.01985 0.726644,-0.161314 0.14654,-0.08888 0.413172,-0.311842 0.592517,-0.495469 l 0.326082,-0.333868 0.21197,0.406036 c 0.116583,0.223319 0.314383,0.625866 0.439555,0.894548 0.218561,0.469141 0.224749,0.495259 0.156073,0.658708 -0.133523,0.317794 -0.774508,1.0035 -1.15149,1.23183 -0.614372,0.372113 -1.421568,0.489316 -2.100658,0.30501 z"
       id="path34" />
    <path
       style="fill:#ffffff;stroke-width:0.0537426"
       d="m 60.887056,58.973658 c -0.261253,-0.05912 -0.251322,0.102373 -0.215204,-3.499589 0.025,-2.492922 0.0174,-3.653946 -0.02988,-4.565365 -0.03487,-0.672239 -0.06484,-1.329571 -0.0666,-1.46074 l -0.0032,-0.238488 0.965383,-0.0162 c 0.53096,-0.0089 0.983593,0.0062 1.005849,0.0336 0.02226,0.02739 0.01594,0.531036 -0.01403,1.119209 -0.02997,0.588173 -0.0616,2.759689 -0.07027,4.825593 l -0.01578,3.756188 -0.184711,0.04128 c -0.202114,0.04517 -1.177696,0.04838 -1.371561,0.0045 z"
       id="path36" />
    <path
       style="fill:#ffffff;stroke-width:0.0537426"
       d="m 65.058214,58.98257 c -0.833888,-0.275994 -1.525725,-1.181857 -1.773691,-2.322398 -0.106996,-0.492134 -0.106319,-1.608959 0.0013,-2.148324 0.235055,-1.178046 0.841515,-2.037377 1.66201,-2.355004 0.455606,-0.176373 1.174638,-0.174976 1.607565,0.0031 1.097706,0.451577 1.743422,1.710569 1.743422,3.399256 0,1.113588 -0.253361,1.972093 -0.775087,2.626355 -0.325268,0.407897 -0.637172,0.638335 -1.058745,0.78221 -0.386074,0.13176 -1.032805,0.138556 -1.406774,0.01478 z m 0.979107,-2.0788 c 0.231609,-0.101664 0.357189,-0.240039 0.474435,-0.522774 0.413653,-0.997518 4.94e-4,-2.252702 -0.741537,-2.252702 -0.269675,0 -0.442316,0.09296 -0.626768,0.337504 -0.549371,0.728334 -0.363094,2.139571 0.321459,2.435386 0.241699,0.104445 0.339355,0.104886 0.572411,0.0026 z"
       id="path38" />
    <path
       style="fill:#ffffff;stroke-width:0.0537426"
       d="m 70.12959,58.937236 c -0.863529,-0.299458 -1.154728,-1.234615 -1.151319,-3.697346 0.002,-1.414423 0.118868,-2.622224 0.272074,-2.810784 0.05832,-0.07178 0.218117,-0.08929 0.807991,-0.08856 0.404411,5.02e-4 0.76488,0.02399 0.80104,0.05219 0.05484,0.04277 0.0559,0.174508 0.0064,0.794249 -0.08248,1.032344 -0.04509,3.097387 0.06155,3.399417 0.09662,0.273669 0.337096,0.462858 0.588702,0.463154 0.233064,2.74e-4 0.561055,-0.225173 0.715623,-0.491889 0.111066,-0.191649 0.112305,-0.2129 0.126686,-2.172899 0.01405,-1.914671 0.01767,-1.980586 0.110788,-2.016962 0.05295,-0.02068 0.461945,-0.01856 0.908886,0.0047 l 0.81262,0.04232 -0.0081,3.215093 c -0.006,2.400533 -0.02274,3.233141 -0.06593,3.286329 -0.06602,0.08132 -1.616944,0.103847 -1.681585,0.02443 -0.02095,-0.02575 -0.05278,-0.221383 -0.07072,-0.434756 -0.01794,-0.213372 -0.04399,-0.401933 -0.05787,-0.419024 -0.01388,-0.01709 -0.141953,0.07884 -0.284592,0.213176 -0.14264,0.134339 -0.417294,0.341277 -0.610343,0.459863 -0.28619,0.175802 -0.415884,0.219376 -0.702422,0.235996 -0.198517,0.01151 -0.450651,-0.01403 -0.579477,-0.0587 z"
       id="path40" />
    <path
       style="fill:#ffffff;stroke-width:0.0537426"
       d="m 70.085505,58.878833 c -0.455861,-0.209512 -0.691821,-0.519351 -0.863659,-1.134068 -0.168019,-0.60105 -0.20947,-1.25953 -0.182303,-2.89602 0.02567,-1.546539 0.08895,-2.188035 0.2326,-2.358094 0.07053,-0.0835 0.448365,-0.11516 1.189148,-0.09965 l 0.394304,0.0083 -0.02578,1.624701 c -0.01418,0.893585 -0.0094,1.838641 0.0105,2.100124 0.03394,0.444828 0.04805,0.489911 0.219196,0.700559 0.166992,0.205526 0.205991,0.225135 0.447769,0.225135 0.209606,0 0.306915,-0.03478 0.466548,-0.166726 0.380678,-0.314666 0.366328,-0.228489 0.400694,-2.406452 0.0169,-1.070931 0.04543,-1.97644 0.06341,-2.012244 0.03585,-0.0714 1.223294,-0.09141 1.544799,-0.02603 l 0.185647,0.03775 -0.0161,3.176254 c -0.0089,1.74694 -0.03423,3.198594 -0.05639,3.225898 -0.04775,0.05883 -1.391198,0.106598 -1.557067,0.05536 -0.101033,-0.03121 -0.118653,-0.08152 -0.148439,-0.423842 -0.01859,-0.213635 -0.05428,-0.404006 -0.07931,-0.423046 -0.02503,-0.01904 -0.191403,0.08529 -0.369716,0.231846 -0.605162,0.497377 -0.811717,0.598427 -1.268844,0.620739 -0.265238,0.01295 -0.474129,-0.0086 -0.587017,-0.06045 z"
       id="path42" />
    <path
       style="fill:#ffffff;stroke-width:0.0537426"
       d="m 76.529702,58.907542 c -0.707148,-0.287094 -1.302132,-1.141154 -1.52267,-2.185689 -0.04154,-0.196753 -0.08727,-0.626032 -0.101614,-0.953953 -0.08662,-1.979857 0.727598,-3.507611 1.983566,-3.721875 0.599818,-0.102326 1.044863,0.05848 1.427046,0.515639 0.119247,0.142641 0.22987,0.243278 0.245827,0.223638 0.01596,-0.01964 0.02198,-0.836696 0.01337,-1.815681 l -0.01564,-1.779973 0.283107,-0.03481 c 0.15571,-0.01915 0.583987,-0.07812 0.951727,-0.131061 0.36774,-0.05294 0.679089,-0.08337 0.691886,-0.06762 0.0128,0.01575 -3.88e-4,0.347489 -0.02934,0.737195 -0.08134,1.095483 -0.117714,6.766121 -0.05192,8.094993 0.03066,0.619366 0.0447,1.139729 0.03118,1.156362 -0.05304,0.06528 -1.410158,0.08335 -1.540522,0.02051 -0.120439,-0.05806 -0.133218,-0.09262 -0.133218,-0.360284 0,-0.162837 -0.02208,-0.312862 -0.04906,-0.333389 -0.02699,-0.02052 -0.140768,0.05929 -0.252851,0.177368 -0.373787,0.393782 -0.676511,0.533241 -1.1982,0.551988 -0.347265,0.01248 -0.529006,-0.01068 -0.732669,-0.09337 z m 1.607997,-2.18266 c 0.273524,-0.222781 0.439605,-0.613887 0.467984,-1.102063 0.01352,-0.232642 -7e-4,-0.494688 -0.03344,-0.616863 -0.250426,-0.933903 -1.113141,-1.24755 -1.575411,-0.572753 -0.214525,0.313153 -0.283773,0.572769 -0.28444,1.066398 -0.0012,0.895149 0.414616,1.476568 1.004112,1.403974 0.13949,-0.01718 0.313569,-0.09103 0.421198,-0.178693 z"
       id="path44" />
    <text
       xml:space="preserve"
       style="font-style:normal;font-weight:normal;font-size:20.1099px;line-height:1.25;font-family:sans-serif;fill:#000000;fill-opacity:1;stroke:none;stroke-width:0.50275"
       x="19.334272"
       y="57.223286"
       id="text50"
       transform="scale(0.9336722,1.0710397)"><tspan
         sodipodi:role="line"
         id="tspan48"
         x="19.334272"
         y="57.223286"
         style="font-style:normal;font-variant:normal;font-weight:normal;font-stretch:normal;font-family:Haettenschweiler;-inkscape-font-specification:Haettenschweiler;fill:#000000;fill-opacity:1;stroke-width:0.50275">Seele</tspan><tspan
         sodipodi:role="line"
         x="19.334272"
         y="82.360657"
         id="tspan52"
         style="fill:#000000;fill-opacity:1;stroke-width:0.50275" /></text>
    <path
       style="fill:none;fill-opacity:1;stroke-width:0.117647"
       d="m 53.311455,61.913659 c -1.002034,-0.26986 -1.809526,-0.746756 -2.560536,-1.512225 -2.77788,-2.831362 -2.756457,-7.995361 0.04474,-10.783672 0.899379,-0.895243 1.769457,-1.364145 2.886212,-1.555437 l 0.774933,-0.132741 v -0.484163 c 0,-0.559645 0.275712,-1.559588 0.612129,-2.22005 0.34363,-0.674622 1.241515,-1.581083 1.914953,-1.933243 0.849421,-0.444187 2.100133,-0.443607 2.965523,0.0014 l 0.610252,0.313792 0.07719,-0.667902 c 0.569558,-4.928042 4.428643,-8.126322 8.199452,-6.795428 1.909468,0.67394 3.714662,2.650607 4.333539,4.745174 0.08125,0.275 0.171967,0.5 0.201585,0.5 0.02962,0 0.29918,-0.178646 0.599024,-0.396991 0.796345,-0.579893 1.39978,-0.856681 2.219096,-1.017872 2.589803,-0.509512 5.183842,1.420992 6.169423,4.591334 0.226273,0.727855 0.274302,1.142617 0.274302,2.368746 v 1.486393 l 0.502346,0.266494 c 0.681356,0.361459 1.883404,1.66347 2.353485,2.549206 0.839644,1.582072 1.117494,3.915986 0.683449,5.740926 -0.603428,2.537114 -2.525868,4.595853 -4.671569,5.002776 -0.373495,0.07083 -5.775107,0.111902 -14.089651,0.107128 -11.215328,-0.0064 -13.58757,-0.03565 -14.099877,-0.173621 z M 81.95799,60.936411 c 2.202564,-0.685515 3.671153,-2.979035 3.702698,-5.782565 0.01512,-1.343944 -0.151529,-2.12244 -0.704566,-3.291357 -0.510588,-1.079193 -1.501445,-2.117393 -2.423887,-2.539702 -0.352638,-0.161442 -0.667344,-0.361767 -0.699347,-0.445167 -0.032,-0.0834 -0.0129,-0.386248 0.04245,-0.672998 0.543453,-2.815545 -0.810143,-5.89674 -3.065591,-6.97822 -0.681259,-0.326661 -0.880248,-0.366673 -1.823529,-0.366673 -0.90538,0 -1.15739,0.04619 -1.738967,0.318702 -0.374079,0.175286 -0.99782,0.621714 -1.386091,0.992061 -0.836997,0.79836 -0.914905,0.768327 -1.216358,-0.46889 -0.452422,-1.856829 -1.897964,-3.770058 -3.370829,-4.46142 -2.076828,-0.974861 -4.367032,-0.480159 -5.993271,1.294594 -1.227711,1.33983 -1.83612,2.907383 -1.964139,5.060568 -0.08726,1.467741 -0.216818,1.653469 -0.776343,1.112976 -0.904414,-0.873652 -2.251619,-1.093506 -3.349192,-0.546562 -1.195693,0.595839 -1.917357,1.820113 -2.005072,3.401525 -0.02878,0.518927 -0.09681,1.029066 -0.151159,1.13364 -0.073,0.140453 -0.328137,0.204853 -0.97638,0.246454 -2.083657,0.133721 -3.837128,1.804901 -4.478856,4.26866 -0.230287,0.884132 -0.230625,2.601339 -7.04e-4,3.576737 0.364986,1.548385 1.538154,3.210735 2.680423,3.798092 1.106465,0.568947 0.611811,0.550771 15.216456,0.55911 13.08839,0.0075 13.818875,-0.0031 14.482258,-0.209565 z"
       id="path104" />
  </g>
  <rect
     y="27.882353"
     x="3.4117646"
     height="22.941177"
     width="24.470589"
     id="rect106"
     style="fill:none;fill-opacity:1" />
  <rect
     y="15.294118"
     x="16.588236"
     height="12"
     width="36.470589"
     id="rect108"
     style="fill:none;fill-opacity:1" />
</svg>
